<svg viewBox="0 0 480 480" fill="none" xmlns="http://www.w3.org/2000/svg">
<path id="Vector" d="M476.5 240C476.5 370.615 370.615 476.5 240 476.5M476.5 240C476.5 109.385 370.615 3.5 240 3.5M476.5 240L3.90033 240M240 476.5C109.385 476.5 3.5 370.615 3.5 240C3.5 109.385 109.385 3.5 240 3.5M240 476.5V3.90081M240 476.5C305.308 476.5 358.25 370.615 358.25 240C358.25 109.385 305.308 3.5 240 3.5M240 476.5C174.692 476.5 121.75 370.615 121.75 240C121.75 109.385 174.692 3.5 240 3.5" stroke="#FE5102" stroke-width="7" stroke-miterlimit="10"/>
</svg>
