<svg viewBox="0 0 479.645 479.644" fill="none" xmlns="http://www.w3.org/2000/svg">
<g id="Vector">
<path d="M243.375 0H236.269V175.514H243.375V0Z" fill="#FE5102"/>
<path d="M243.375 304.13H236.269V479.644H243.375V304.13Z" fill="#FE5102"/>
<path d="M175.514 236.269H0V243.375H175.514V236.269Z" fill="#FE5102"/>
<path d="M479.645 236.269H304.131V243.375H479.645V236.269Z" fill="#FE5102"/>
<path d="M239.822 404.323C148.867 404.323 74.9666 330.422 74.9666 239.467C74.9666 148.512 148.867 74.6115 239.822 74.6115C330.777 74.6115 404.677 148.512 404.677 239.467C404.677 330.422 330.422 404.323 239.822 404.323ZM239.822 82.0726C152.776 82.0726 82.0725 152.776 82.0725 239.822C82.0725 326.869 152.776 397.572 239.822 397.572C326.869 397.572 397.572 326.869 397.572 239.822C397.572 152.776 326.514 82.0726 239.822 82.0726Z" fill="#FE5102"/>
<path d="M243.375 236.27H304.13C302.353 203.583 276.062 177.291 243.375 175.514L243.375 236.27Z" fill="#FE5102"/>
<path d="M236.269 236.27L236.269 175.514C203.583 177.291 177.29 203.582 175.514 236.269L236.269 236.27Z" fill="#FE5102"/>
<path d="M236.269 243.375L175.514 243.375C177.29 276.062 203.582 302.354 236.269 304.13L236.269 243.375Z" fill="#FE5102"/>
<path d="M243.375 243.375L243.375 304.13C276.062 302.354 302.353 276.062 304.13 243.375H243.375Z" fill="#FE5102"/>
</g>
</svg>
